<svg width="32" height="32" viewBox="0 0 32 32" fill="none" xmlns="http://www.w3.org/2000/svg">
  <!-- Background circle -->
  <circle cx="16" cy="16" r="15" fill="#2563eb" stroke="#1e40af" stroke-width="2"/>
  
  <!-- Lightbulb representing insight -->
  <g transform="translate(7, 5)">
    <!-- Bulb -->
    <path d="M9 0C6.239 0 4 2.239 4 5c0 1.726.87 3.244 2.197 4.143.056.482.103.964.154 1.446.02.193.172.342.366.342h4.566c.194 0 .346-.15.366-.342.051-.482.098-.964.154-1.446C12.13 8.244 13 6.726 13 5c0-2.761-2.239-5-5-5z" fill="#fbbf24"/>
    
    <!-- Base -->
    <rect x="7" y="12" width="4" height="1.5" rx="0.5" fill="#f59e0b"/>
    <rect x="7" y="14" width="4" height="1" rx="0.5" fill="#d97706"/>
    
    <!-- Sparkle effect -->
    <circle cx="4" cy="3" r="0.8" fill="#fef3c7"/>
    <circle cx="14" cy="4" r="0.6" fill="#fef3c7"/>
    <circle cx="12" cy="8" r="0.5" fill="#fef3c7"/>
  </g>
  
  <!-- Connected nodes at bottom representing data connections -->
  <circle cx="10" cy="25" r="1.5" fill="#60a5fa"/>
  <circle cx="16" cy="27" r="1.5" fill="#60a5fa"/>
  <circle cx="22" cy="25" r="1.5" fill="#60a5fa"/>
  <line x1="10" y1="25" x2="16" y2="27" stroke="#93c5fd" stroke-width="1"/>
  <line x1="16" y1="27" x2="22" y2="25" stroke="#93c5fd" stroke-width="1"/>
</svg>
